<svg xmlns:ev="http://www.w3.org/2001/xml-events" viewBox="0 0 1132 804" width="1132" height="804" xmlns:xlink="http://www.w3.org/1999/xlink" xmlns="http://www.w3.org/2000/svg"><defs/><g id="page1" transform="translate(5.5,5.5)"><rect width="1123" fill="#ffffff" y="0" height="794" x="0"/><g id="shape1" transform="translate(188.999500,173.500000)"><path d="M141.7,129.5L141.7,7.0C141.7,3.1,138.5,.0,134.7,.0L7.0,.0C3.1,.0,.0,3.1,.0,7.0L.0,129.5C.0,133.4,3.1,136.5,7.0,136.5L134.7,136.5C138.5,136.5,141.7,133.4,141.7,129.5z" fill="#88b0f5" fill-rule="nonzero"/><text xml:space="preserve" style="fill:#ffffff;font-family:微软雅黑;font-size:10.00pt;font-weight:bold"><tspan y="45.3" x="25.3">介绍遇到的问题</tspan><tspan y="64.3" x="13.3">如软件提示xxx故障</tspan><tspan y="83.3" x="6.8">电脑一直弹出xxx窗口</tspan><tspan y="102.3" x="31.8">以及其他情况</tspan></text></g><g id="shape2" transform="translate(330.667000,203.501000)"><path stroke="#00b050" d="M.0,.0L23.3,-0.0" stroke-width="4" fill="none"/><path stroke="#00b050" d="M23.3,-6.0L35.3,-0.0L23.3,6.0L23.3,-6.0" stroke-width="1" stroke-linecap="round" fill="#00b050"/></g><g id="shape3" transform="translate(366.000000,173.500000)"><path d="M100.0,53.0L100.0,7.0C100.0,3.1,96.9,.0,93.0,.0L7.0,.0C3.1,.0,.0,3.1,.0,7.0L.0,53.0C.0,56.9,3.1,60.0,7.0,60.0L93.0,60.0C96.9,60.0,100.0,56.9,100.0,53.0z" fill="#88b0f5" fill-rule="nonzero"/><text xml:space="preserve" style="fill:#ffffff;font-family:微软雅黑;font-size:10.00pt;font-weight:bold"><tspan y="26.0" x="11.0">判断处理难度</tspan><tspan y="45.0" x="11.0">给出相应价格</tspan></text></g><g id="shape4" transform="translate(466.000000,203.500000)"><path stroke="#00b050" d="M.0,.0L84.0,.0" stroke-width="4" fill="none"/><path stroke="#00b050" d="M84.0,-6.0L96.0,.0L84.0,6.0L84.0,-6.0" stroke-width="1" stroke-linecap="round" fill="#00b050"/></g><g id="shape5" transform="translate(562.000000,173.500000)"><path d="M100.0,53.0L100.0,7.0C100.0,3.1,96.9,.0,93.0,.0L7.0,.0C3.1,.0,.0,3.1,.0,7.0L.0,53.0C.0,56.9,3.1,60.0,7.0,60.0L93.0,60.0C96.9,60.0,100.0,56.9,100.0,53.0z" fill="#88b0f5" fill-rule="nonzero"/><text xml:space="preserve" style="fill:#ffffff;font-family:微软雅黑;font-size:10.00pt;font-weight:bold"><tspan y="26.0" x="11.0">安装远程软件</tspan><tspan y="45.0" x="24.0">手动处理</tspan></text></g><g id="shape6" transform="translate(804.000000,173.500000)"><path d="M100.0,53.0L100.0,7.0C100.0,3.1,96.9,.0,93.0,.0L7.0,.0C3.1,.0,.0,3.1,.0,7.0L.0,53.0C.0,56.9,3.1,60.0,7.0,60.0L93.0,60.0C96.9,60.0,100.0,56.9,100.0,53.0z" fill="#88b0f5" fill-rule="nonzero"/><text xml:space="preserve" style="fill:#ffffff;font-family:微软雅黑;font-size:10.00pt;font-weight:bold"><tspan y="26.0" x="24.0">交易结束</tspan><tspan y="45.0" x="4.5">将临时垃圾删除</tspan></text></g><g id="shape7" transform="translate(446.000000,173.500000)"><text xml:space="preserve" style="fill:#191919;font-family:微软雅黑;font-size:10.00pt"><tspan y="23.0" x="29.5">√接受价格</tspan></text></g><g id="shape8" transform="translate(662.000000,203.500000)"><path stroke="#00b050" d="M.0,.0L130.0,.0" stroke-width="4" fill="none"/><path stroke="#00b050" d="M130.0,-6.0L142.0,.0L130.0,6.0L130.0,-6.0" stroke-width="1" stroke-linecap="round" fill="#00b050"/></g><g id="shape9" transform="translate(649.999600,164.000000)"><text xml:space="preserve" style="fill:#191919;font-family:微软雅黑;font-size:10.00pt"><tspan y="32.5" x="16.6">√成功找到，支付尾款</tspan></text></g><g id="shape10" transform="translate(612.000000,233.500000)"><path stroke="#c00000" d="M.0,.0L.0,31.5L242.0,31.5L242.0,5.5" stroke-width="1" fill="none"/><path stroke="#c00000" d="M239.0,5.5L242.0,-0.5L245.0,5.5L239.0,5.5" stroke-width="1" stroke-linecap="round" fill="#c00000"/></g><g id="shape11" transform="translate(653.830600,227.000000)"><text xml:space="preserve" style="fill:#191919;font-family:微软雅黑;font-size:10.00pt"><tspan y="32.5" x="9.6">×没有找到，退回首付款</tspan></text></g><g id="shape12" transform="translate(416.000000,233.500000)"><path stroke="#c00000" d="M.0,.0L.0,71.0L461.0,71.0L461.0,5.5" stroke-width="1" fill="none"/><path stroke="#c00000" d="M458.0,5.5L461.0,-0.5L464.0,5.5L458.0,5.5" stroke-width="1" stroke-linecap="round" fill="#c00000"/></g><g id="shape13" transform="translate(534.000000,275.000000)"><text xml:space="preserve" style="fill:#191919;font-family:微软雅黑;font-size:10.00pt"><tspan y="23.0" x="22.5">×不接受价格</tspan></text></g></g><g opacity="0.4" transform="translate(0,0)"><path d="M168.8,221.7L170.4,223.3L175.1,218.7L173.4,217.0L168.8,221.7zM175.3,228.2L177.0,229.9L181.9,225.0L180.2,223.3L175.3,228.2zM171.9,225.1L173.5,226.7L178.0,222.2L176.4,220.6L171.9,225.1zM161.0,229.5L162.6,231.1L167.0,226.8L165.3,225.1L161.0,229.5zM164.4,232.6L166.0,234.2L170.1,230.1L168.5,228.5L164.4,232.6zM166.1,220.7L179.3,233.9L181.1,232.1L167.9,218.9L166.1,220.7zM162.7,224.0L176.0,237.2L177.7,235.5L164.5,222.2L162.7,224.0zM167.3,236.4L168.9,238.1L173.9,233.1L172.2,231.5L167.3,236.4zM180.5,220.2L182.2,221.8L193.9,210.1L192.3,208.4L180.5,220.2zM180.3,214.9L181.9,216.4L188.5,209.8L186.9,208.3L180.3,214.9zM190.2,215.3C192.6,215.3,195.5,215.6,197.2,216.1L197.8,213.6C196.1,213.2,193.3,213.0,191.0,213.1L190.2,215.3zM179.2,207.3C179.7,210.5,178.8,214.8,177.2,218.5C177.9,218.5,179.2,218.6,179.9,218.8C181.4,214.7,182.1,210.4,181.5,206.5L179.2,207.3zM180.3,207.6L180.1,209.6C182.8,209.8,187.3,209.1,190.7,207.6C190.6,206.9,190.4,205.7,190.4,205.0C187.2,206.7,182.8,207.7,180.3,207.6zM187.5,225.2C187.2,224.9,187.9,223.2,187.9,223.2L187.8,223.1C188.2,220.8,188.2,218.1,187.9,215.6L185.3,216.2C185.8,218.6,185.8,221.4,185.7,222.2C185.6,223.1,185.5,223.6,185.3,224.0C185.9,224.3,187.1,224.9,187.5,225.2zM187.5,225.2C188.0,224.2,189.0,223.1,196.0,214.9C195.6,214.6,194.7,214.1,194.2,213.7L186.7,222.2L186.2,223.9L187.5,225.2zM192.7,198.0L198.3,192.4L199.4,193.5L193.8,199.0L192.7,198.0zM189.5,198.3L193.5,202.3L202.7,193.0L198.7,189.1L189.5,198.3zM200.1,201.9L201.4,203.1C202.3,204.0,203.2,205.8,199.2,211.5C200.0,211.5,201.2,211.6,201.7,211.7C205.7,205.5,204.7,202.8,203.2,201.3L202.0,200.0L200.1,201.9zM205.4,204.1C207.5,203.0,210.7,201.6,212.4,201.1L211.8,198.8C210.0,199.4,206.9,200.9,205.0,202.0L205.4,204.1zM193.8,203.8L199.0,209.0L200.7,207.2L197.1,203.6L204.0,196.7L207.4,200.2L209.3,198.3L204.3,193.3L193.8,203.8zM204.8,188.8L206.5,190.5L210.4,186.6L208.7,184.9L204.8,188.8zM206.8,179.9L217.9,191.0C218.1,191.2,218.1,191.4,217.9,191.7C217.6,191.9,216.9,192.7,216.0,193.4C216.8,193.7,218.0,194.2,218.6,194.7C219.7,193.5,220.5,192.6,220.8,191.7C221.0,190.9,220.7,190.2,219.7,189.2L208.6,178.1L206.8,179.9zM208.1,185.5L208.5,185.9C211.1,189.5,212.2,193.3,211.6,196.5C212.2,196.4,213.6,196.4,214.3,196.5C214.8,193.0,213.4,188.6,210.2,184.1L208.7,184.8L208.4,185.2L208.1,185.5zM211.6,181.3L210.6,183.0C215.5,185.6,220.5,186.9,225.2,185.4C224.9,184.7,224.8,183.4,224.8,182.6C220.6,184.2,215.8,183.4,211.6,181.3zM214.3,177.3C214.7,179.2,214.7,182.0,214.6,183.8L216.7,183.6C217.0,181.7,217.0,179.1,217.0,176.8L214.3,177.3zM221.6,174.6L223.3,176.3L227.6,171.9L226.0,170.3L221.6,174.6zM227.0,161.5L235.3,169.8C235.5,170.0,235.5,170.2,235.3,170.4C235.1,170.6,234.5,171.3,233.8,171.9C234.5,172.1,235.6,172.6,236.2,173.1C237.2,172.1,237.9,171.4,238.1,170.5C238.3,169.7,237.9,169.0,237.1,168.2L228.8,159.8L227.0,161.5zM223.0,165.6L235.3,177.9L237.0,176.2L226.4,165.6L229.7,162.3L228.0,160.6L223.0,165.6zM220.5,166.9C219.9,168.4,218.8,170.5,217.7,172.3C218.2,172.5,219.1,172.9,219.6,173.2C220.8,171.3,222.2,169.0,223.1,166.9L220.5,166.9zM217.7,172.3L224.9,179.6C225.5,180.1,225.4,180.8,225.2,181.3C225.9,181.5,227.1,182.1,227.7,182.4L228.1,179.3L219.4,170.6L217.7,172.3zM227.7,182.4C227.9,181.7,228.3,180.8,231.6,175.7C231.1,175.4,230.4,174.7,229.9,174.2L226.3,179.7L226.0,181.0L227.7,182.4" stroke="none" fill="#999999"/></g><g opacity="0.4" transform="translate(0,400)"><path d="M168.8,221.7L170.4,223.3L175.1,218.7L173.4,217.0L168.8,221.7zM175.3,228.2L177.0,229.9L181.9,225.0L180.2,223.3L175.3,228.2zM171.9,225.1L173.5,226.7L178.0,222.2L176.4,220.6L171.9,225.1zM161.0,229.5L162.6,231.1L167.0,226.8L165.3,225.1L161.0,229.5zM164.4,232.6L166.0,234.2L170.1,230.1L168.5,228.5L164.4,232.6zM166.1,220.7L179.3,233.9L181.1,232.1L167.9,218.9L166.1,220.7zM162.7,224.0L176.0,237.2L177.7,235.5L164.5,222.2L162.7,224.0zM167.3,236.4L168.9,238.1L173.9,233.1L172.2,231.5L167.3,236.4zM180.5,220.2L182.2,221.8L193.9,210.1L192.3,208.4L180.5,220.2zM180.3,214.9L181.9,216.4L188.5,209.8L186.9,208.3L180.3,214.9zM190.2,215.3C192.6,215.3,195.5,215.6,197.2,216.1L197.8,213.6C196.1,213.2,193.3,213.0,191.0,213.1L190.2,215.3zM179.2,207.3C179.7,210.5,178.8,214.8,177.2,218.5C177.9,218.5,179.2,218.6,179.9,218.8C181.4,214.7,182.1,210.4,181.5,206.5L179.2,207.3zM180.3,207.6L180.1,209.6C182.8,209.8,187.3,209.1,190.7,207.6C190.6,206.9,190.4,205.7,190.4,205.0C187.2,206.7,182.8,207.7,180.3,207.6zM187.5,225.2C187.2,224.9,187.9,223.2,187.9,223.2L187.8,223.1C188.2,220.8,188.2,218.1,187.9,215.6L185.3,216.2C185.8,218.6,185.8,221.4,185.7,222.2C185.6,223.1,185.5,223.6,185.3,224.0C185.9,224.3,187.1,224.9,187.5,225.2zM187.5,225.2C188.0,224.2,189.0,223.1,196.0,214.9C195.6,214.6,194.7,214.1,194.2,213.7L186.7,222.2L186.2,223.9L187.5,225.2zM192.7,198.0L198.3,192.4L199.4,193.5L193.8,199.0L192.7,198.0zM189.5,198.3L193.5,202.3L202.7,193.0L198.7,189.1L189.5,198.3zM200.1,201.9L201.4,203.1C202.3,204.0,203.2,205.8,199.2,211.5C200.0,211.5,201.2,211.6,201.7,211.7C205.7,205.5,204.7,202.8,203.2,201.3L202.0,200.0L200.1,201.9zM205.4,204.1C207.5,203.0,210.7,201.6,212.4,201.1L211.8,198.8C210.0,199.4,206.9,200.9,205.0,202.0L205.4,204.1zM193.8,203.8L199.0,209.0L200.7,207.2L197.1,203.6L204.0,196.7L207.4,200.2L209.3,198.3L204.3,193.3L193.8,203.8zM204.8,188.8L206.5,190.5L210.4,186.6L208.7,184.9L204.8,188.8zM206.8,179.9L217.9,191.0C218.1,191.2,218.1,191.4,217.9,191.7C217.6,191.9,216.9,192.7,216.0,193.4C216.8,193.7,218.0,194.2,218.6,194.7C219.7,193.5,220.5,192.6,220.8,191.7C221.0,190.9,220.7,190.2,219.7,189.2L208.6,178.1L206.8,179.9zM208.1,185.5L208.5,185.9C211.1,189.5,212.2,193.3,211.6,196.5C212.2,196.4,213.6,196.4,214.3,196.5C214.8,193.0,213.4,188.6,210.2,184.1L208.7,184.8L208.4,185.2L208.1,185.5zM211.6,181.3L210.6,183.0C215.5,185.6,220.5,186.9,225.2,185.4C224.9,184.7,224.8,183.4,224.8,182.6C220.6,184.2,215.8,183.4,211.6,181.3zM214.3,177.3C214.7,179.2,214.7,182.0,214.6,183.8L216.7,183.6C217.0,181.7,217.0,179.1,217.0,176.8L214.3,177.3zM221.6,174.6L223.3,176.3L227.6,171.9L226.0,170.3L221.6,174.6zM227.0,161.5L235.3,169.8C235.5,170.0,235.5,170.2,235.3,170.4C235.1,170.6,234.5,171.3,233.8,171.9C234.5,172.1,235.6,172.6,236.2,173.1C237.2,172.1,237.9,171.4,238.1,170.5C238.3,169.7,237.9,169.0,237.1,168.2L228.8,159.8L227.0,161.5zM223.0,165.6L235.3,177.9L237.0,176.2L226.4,165.6L229.7,162.3L228.0,160.6L223.0,165.6zM220.5,166.9C219.9,168.4,218.8,170.5,217.7,172.3C218.2,172.5,219.1,172.9,219.6,173.2C220.8,171.3,222.2,169.0,223.1,166.9L220.5,166.9zM217.7,172.3L224.9,179.6C225.5,180.1,225.4,180.8,225.2,181.3C225.9,181.5,227.1,182.1,227.7,182.4L228.1,179.3L219.4,170.6L217.7,172.3zM227.7,182.4C227.9,181.7,228.3,180.8,231.6,175.7C231.1,175.4,230.4,174.7,229.9,174.2L226.3,179.7L226.0,181.0L227.7,182.4" stroke="none" fill="#999999"/></g><g opacity="0.4" transform="translate(0,800)"><path d="M168.8,221.7L170.4,223.3L175.1,218.7L173.4,217.0L168.8,221.7zM175.3,228.2L177.0,229.9L181.9,225.0L180.2,223.3L175.3,228.2zM171.9,225.1L173.5,226.7L178.0,222.2L176.4,220.6L171.9,225.1zM161.0,229.5L162.6,231.1L167.0,226.8L165.3,225.1L161.0,229.5zM164.4,232.6L166.0,234.2L170.1,230.1L168.5,228.5L164.4,232.6zM166.1,220.7L179.3,233.9L181.1,232.1L167.9,218.9L166.1,220.7zM162.7,224.0L176.0,237.2L177.7,235.5L164.5,222.2L162.7,224.0zM167.3,236.4L168.9,238.1L173.9,233.1L172.2,231.5L167.3,236.4zM180.5,220.2L182.2,221.8L193.9,210.1L192.3,208.4L180.5,220.2zM180.3,214.9L181.9,216.4L188.5,209.8L186.9,208.3L180.3,214.9zM190.2,215.3C192.6,215.3,195.5,215.6,197.2,216.1L197.8,213.6C196.1,213.2,193.3,213.0,191.0,213.1L190.2,215.3zM179.2,207.3C179.7,210.5,178.8,214.8,177.2,218.5C177.9,218.5,179.2,218.6,179.9,218.8C181.4,214.7,182.1,210.4,181.5,206.5L179.2,207.3zM180.3,207.6L180.1,209.6C182.8,209.8,187.3,209.1,190.7,207.6C190.6,206.9,190.4,205.7,190.4,205.0C187.2,206.7,182.8,207.7,180.3,207.6zM187.5,225.2C187.2,224.9,187.9,223.2,187.9,223.2L187.8,223.1C188.2,220.8,188.2,218.1,187.9,215.6L185.3,216.2C185.8,218.6,185.8,221.4,185.7,222.2C185.6,223.1,185.5,223.6,185.3,224.0C185.9,224.3,187.1,224.9,187.5,225.2zM187.5,225.2C188.0,224.2,189.0,223.1,196.0,214.9C195.6,214.6,194.7,214.1,194.2,213.7L186.7,222.2L186.2,223.9L187.5,225.2zM192.7,198.0L198.3,192.4L199.4,193.5L193.8,199.0L192.7,198.0zM189.5,198.3L193.5,202.3L202.7,193.0L198.7,189.1L189.5,198.3zM200.1,201.9L201.4,203.1C202.3,204.0,203.2,205.8,199.2,211.5C200.0,211.5,201.2,211.6,201.7,211.7C205.7,205.5,204.7,202.8,203.2,201.3L202.0,200.0L200.1,201.9zM205.4,204.1C207.5,203.0,210.7,201.6,212.4,201.1L211.8,198.8C210.0,199.4,206.9,200.9,205.0,202.0L205.4,204.1zM193.8,203.8L199.0,209.0L200.7,207.2L197.1,203.6L204.0,196.7L207.4,200.2L209.3,198.3L204.3,193.3L193.8,203.8zM204.8,188.8L206.5,190.5L210.4,186.6L208.7,184.9L204.8,188.8zM206.8,179.9L217.9,191.0C218.1,191.2,218.1,191.4,217.9,191.7C217.6,191.9,216.9,192.7,216.0,193.4C216.8,193.7,218.0,194.2,218.6,194.7C219.7,193.5,220.5,192.6,220.8,191.7C221.0,190.9,220.7,190.2,219.7,189.2L208.6,178.1L206.8,179.9zM208.1,185.5L208.5,185.9C211.1,189.5,212.2,193.3,211.6,196.5C212.2,196.4,213.6,196.4,214.3,196.5C214.8,193.0,213.4,188.6,210.2,184.1L208.7,184.8L208.4,185.2L208.1,185.5zM211.6,181.3L210.6,183.0C215.5,185.6,220.5,186.9,225.2,185.4C224.9,184.7,224.8,183.4,224.8,182.6C220.6,184.2,215.8,183.4,211.6,181.3zM214.3,177.3C214.7,179.2,214.7,182.0,214.6,183.8L216.7,183.6C217.0,181.7,217.0,179.1,217.0,176.8L214.3,177.3zM221.6,174.6L223.3,176.3L227.6,171.9L226.0,170.3L221.6,174.6zM227.0,161.5L235.3,169.8C235.5,170.0,235.5,170.2,235.3,170.4C235.1,170.6,234.5,171.3,233.8,171.9C234.5,172.1,235.6,172.6,236.2,173.1C237.2,172.1,237.9,171.4,238.1,170.5C238.3,169.7,237.9,169.0,237.1,168.2L228.8,159.8L227.0,161.5zM223.0,165.6L235.3,177.9L237.0,176.2L226.4,165.6L229.7,162.3L228.0,160.6L223.0,165.6zM220.5,166.9C219.9,168.4,218.8,170.5,217.7,172.3C218.2,172.5,219.1,172.9,219.6,173.2C220.8,171.3,222.2,169.0,223.1,166.9L220.5,166.9zM217.7,172.3L224.9,179.6C225.5,180.1,225.4,180.8,225.2,181.3C225.9,181.5,227.1,182.1,227.7,182.4L228.1,179.3L219.4,170.6L217.7,172.3zM227.7,182.4C227.9,181.7,228.3,180.8,231.6,175.7C231.1,175.4,230.4,174.7,229.9,174.2L226.3,179.7L226.0,181.0L227.7,182.4" stroke="none" fill="#999999"/></g><g opacity="0.4" transform="translate(400,0)"><path d="M168.8,221.7L170.4,223.3L175.1,218.7L173.4,217.0L168.8,221.7zM175.3,228.2L177.0,229.9L181.9,225.0L180.2,223.3L175.3,228.2zM171.9,225.1L173.5,226.7L178.0,222.2L176.4,220.6L171.9,225.1zM161.0,229.5L162.6,231.1L167.0,226.8L165.3,225.1L161.0,229.5zM164.4,232.6L166.0,234.2L170.1,230.1L168.5,228.5L164.4,232.6zM166.1,220.7L179.3,233.9L181.1,232.1L167.9,218.9L166.1,220.7zM162.7,224.0L176.0,237.2L177.7,235.5L164.5,222.2L162.7,224.0zM167.3,236.4L168.9,238.1L173.9,233.1L172.2,231.5L167.3,236.4zM180.5,220.2L182.2,221.8L193.9,210.1L192.3,208.4L180.5,220.2zM180.3,214.9L181.9,216.4L188.5,209.8L186.9,208.3L180.3,214.9zM190.2,215.3C192.6,215.3,195.5,215.6,197.2,216.1L197.8,213.6C196.1,213.2,193.3,213.0,191.0,213.1L190.2,215.3zM179.2,207.3C179.7,210.5,178.8,214.8,177.2,218.5C177.9,218.5,179.2,218.6,179.9,218.8C181.4,214.7,182.1,210.4,181.5,206.5L179.2,207.3zM180.3,207.6L180.1,209.6C182.8,209.8,187.3,209.1,190.7,207.6C190.6,206.9,190.4,205.7,190.4,205.0C187.2,206.7,182.8,207.7,180.3,207.6zM187.5,225.2C187.2,224.9,187.9,223.2,187.9,223.2L187.8,223.1C188.2,220.8,188.2,218.1,187.9,215.6L185.3,216.2C185.8,218.6,185.8,221.4,185.7,222.2C185.6,223.1,185.5,223.6,185.3,224.0C185.9,224.3,187.1,224.9,187.5,225.2zM187.5,225.2C188.0,224.2,189.0,223.1,196.0,214.9C195.6,214.6,194.7,214.1,194.2,213.7L186.7,222.2L186.2,223.9L187.5,225.2zM192.7,198.0L198.3,192.4L199.4,193.5L193.8,199.0L192.7,198.0zM189.5,198.3L193.5,202.3L202.7,193.0L198.7,189.1L189.5,198.3zM200.1,201.9L201.4,203.1C202.3,204.0,203.2,205.8,199.2,211.5C200.0,211.5,201.2,211.6,201.7,211.7C205.7,205.5,204.7,202.8,203.2,201.3L202.0,200.0L200.1,201.9zM205.4,204.1C207.5,203.0,210.7,201.6,212.4,201.1L211.8,198.8C210.0,199.4,206.9,200.9,205.0,202.0L205.4,204.1zM193.8,203.8L199.0,209.0L200.7,207.2L197.1,203.6L204.0,196.7L207.4,200.2L209.3,198.3L204.3,193.3L193.8,203.8zM204.8,188.8L206.5,190.5L210.4,186.6L208.7,184.9L204.8,188.8zM206.8,179.9L217.9,191.0C218.1,191.2,218.1,191.4,217.9,191.7C217.6,191.9,216.9,192.7,216.0,193.4C216.8,193.7,218.0,194.2,218.6,194.7C219.7,193.5,220.5,192.6,220.8,191.7C221.0,190.9,220.7,190.2,219.7,189.2L208.6,178.1L206.8,179.9zM208.1,185.5L208.5,185.9C211.1,189.5,212.2,193.3,211.6,196.5C212.2,196.4,213.6,196.4,214.3,196.5C214.8,193.0,213.4,188.6,210.2,184.1L208.7,184.8L208.4,185.2L208.1,185.5zM211.6,181.3L210.6,183.0C215.5,185.6,220.5,186.9,225.2,185.4C224.9,184.7,224.8,183.4,224.8,182.6C220.6,184.2,215.8,183.4,211.6,181.3zM214.3,177.3C214.7,179.2,214.7,182.0,214.6,183.8L216.7,183.6C217.0,181.7,217.0,179.1,217.0,176.8L214.3,177.3zM221.6,174.6L223.3,176.3L227.6,171.9L226.0,170.3L221.6,174.6zM227.0,161.5L235.3,169.8C235.5,170.0,235.5,170.2,235.3,170.4C235.1,170.6,234.5,171.3,233.8,171.9C234.5,172.1,235.6,172.6,236.2,173.1C237.2,172.1,237.9,171.4,238.1,170.5C238.3,169.7,237.9,169.0,237.1,168.2L228.8,159.8L227.0,161.5zM223.0,165.6L235.3,177.9L237.0,176.2L226.4,165.6L229.7,162.3L228.0,160.6L223.0,165.6zM220.5,166.9C219.9,168.4,218.8,170.5,217.7,172.3C218.2,172.5,219.1,172.9,219.6,173.2C220.8,171.3,222.2,169.0,223.1,166.9L220.5,166.9zM217.7,172.3L224.9,179.6C225.5,180.1,225.4,180.8,225.2,181.3C225.9,181.5,227.1,182.1,227.7,182.4L228.1,179.3L219.4,170.6L217.7,172.3zM227.7,182.4C227.9,181.7,228.3,180.8,231.6,175.7C231.1,175.4,230.4,174.7,229.9,174.2L226.3,179.7L226.0,181.0L227.7,182.4" stroke="none" fill="#999999"/></g><g opacity="0.4" transform="translate(400,400)"><path d="M168.8,221.7L170.4,223.3L175.1,218.7L173.4,217.0L168.8,221.7zM175.3,228.2L177.0,229.9L181.9,225.0L180.2,223.3L175.3,228.2zM171.9,225.1L173.5,226.7L178.0,222.2L176.4,220.6L171.9,225.1zM161.0,229.5L162.6,231.1L167.0,226.8L165.3,225.1L161.0,229.5zM164.4,232.6L166.0,234.2L170.1,230.1L168.5,228.5L164.4,232.6zM166.1,220.7L179.3,233.9L181.1,232.1L167.9,218.9L166.1,220.7zM162.7,224.0L176.0,237.2L177.7,235.5L164.5,222.2L162.7,224.0zM167.3,236.4L168.9,238.1L173.9,233.1L172.2,231.5L167.3,236.4zM180.5,220.2L182.2,221.8L193.9,210.1L192.3,208.4L180.5,220.2zM180.3,214.9L181.9,216.4L188.5,209.8L186.9,208.3L180.3,214.9zM190.2,215.3C192.6,215.3,195.5,215.6,197.2,216.1L197.8,213.6C196.1,213.2,193.3,213.0,191.0,213.1L190.2,215.3zM179.2,207.3C179.7,210.5,178.8,214.8,177.2,218.5C177.9,218.5,179.2,218.6,179.9,218.8C181.4,214.7,182.1,210.4,181.5,206.5L179.2,207.3zM180.3,207.6L180.1,209.6C182.8,209.8,187.3,209.1,190.7,207.6C190.6,206.9,190.4,205.7,190.4,205.0C187.2,206.7,182.8,207.7,180.3,207.6zM187.5,225.2C187.2,224.9,187.9,223.2,187.9,223.2L187.8,223.1C188.2,220.8,188.2,218.1,187.9,215.6L185.3,216.2C185.8,218.6,185.8,221.4,185.7,222.2C185.6,223.1,185.5,223.6,185.3,224.0C185.9,224.3,187.1,224.9,187.5,225.2zM187.5,225.2C188.0,224.2,189.0,223.1,196.0,214.9C195.6,214.6,194.7,214.1,194.2,213.7L186.7,222.2L186.2,223.9L187.5,225.2zM192.7,198.0L198.3,192.4L199.4,193.5L193.8,199.0L192.7,198.0zM189.5,198.3L193.5,202.3L202.7,193.0L198.7,189.1L189.5,198.3zM200.1,201.9L201.4,203.1C202.3,204.0,203.2,205.8,199.2,211.5C200.0,211.5,201.2,211.6,201.7,211.7C205.7,205.5,204.7,202.8,203.2,201.3L202.0,200.0L200.1,201.9zM205.4,204.1C207.5,203.0,210.7,201.6,212.4,201.1L211.8,198.8C210.0,199.4,206.9,200.9,205.0,202.0L205.4,204.1zM193.8,203.8L199.0,209.0L200.7,207.2L197.1,203.6L204.0,196.7L207.4,200.2L209.3,198.3L204.3,193.3L193.8,203.8zM204.8,188.8L206.5,190.5L210.4,186.6L208.7,184.9L204.8,188.8zM206.8,179.9L217.9,191.0C218.1,191.2,218.1,191.4,217.9,191.7C217.6,191.9,216.9,192.7,216.0,193.4C216.8,193.7,218.0,194.2,218.6,194.7C219.7,193.5,220.5,192.6,220.8,191.7C221.0,190.9,220.7,190.2,219.7,189.2L208.6,178.1L206.8,179.9zM208.1,185.5L208.5,185.9C211.1,189.5,212.2,193.3,211.6,196.5C212.2,196.4,213.6,196.4,214.3,196.5C214.8,193.0,213.4,188.6,210.2,184.1L208.7,184.8L208.4,185.2L208.1,185.5zM211.6,181.3L210.6,183.0C215.5,185.6,220.5,186.9,225.2,185.4C224.9,184.7,224.8,183.4,224.8,182.6C220.6,184.2,215.8,183.4,211.6,181.3zM214.3,177.3C214.7,179.2,214.7,182.0,214.6,183.8L216.7,183.6C217.0,181.7,217.0,179.1,217.0,176.8L214.3,177.3zM221.6,174.6L223.3,176.3L227.6,171.9L226.0,170.3L221.6,174.6zM227.0,161.5L235.3,169.8C235.5,170.0,235.5,170.2,235.3,170.4C235.1,170.6,234.5,171.3,233.8,171.9C234.5,172.1,235.6,172.6,236.2,173.1C237.2,172.1,237.9,171.4,238.1,170.5C238.3,169.7,237.9,169.0,237.1,168.2L228.8,159.8L227.0,161.5zM223.0,165.6L235.3,177.9L237.0,176.2L226.4,165.6L229.7,162.3L228.0,160.6L223.0,165.6zM220.5,166.9C219.9,168.4,218.8,170.5,217.7,172.3C218.2,172.5,219.1,172.9,219.6,173.2C220.8,171.3,222.2,169.0,223.1,166.9L220.5,166.9zM217.7,172.3L224.9,179.6C225.5,180.1,225.4,180.8,225.2,181.3C225.9,181.5,227.1,182.1,227.7,182.4L228.1,179.3L219.4,170.6L217.7,172.3zM227.7,182.4C227.9,181.7,228.3,180.8,231.6,175.7C231.1,175.4,230.4,174.7,229.9,174.2L226.3,179.7L226.0,181.0L227.7,182.4" stroke="none" fill="#999999"/></g><g opacity="0.4" transform="translate(400,800)"><path d="M168.8,221.7L170.4,223.3L175.1,218.7L173.4,217.0L168.8,221.7zM175.3,228.2L177.0,229.9L181.9,225.0L180.2,223.3L175.3,228.2zM171.9,225.1L173.5,226.7L178.0,222.2L176.4,220.6L171.9,225.1zM161.0,229.5L162.6,231.1L167.0,226.8L165.3,225.1L161.0,229.5zM164.4,232.6L166.0,234.2L170.1,230.1L168.5,228.5L164.4,232.6zM166.1,220.7L179.3,233.9L181.1,232.1L167.9,218.9L166.1,220.7zM162.7,224.0L176.0,237.2L177.7,235.5L164.5,222.2L162.7,224.0zM167.3,236.4L168.9,238.1L173.9,233.1L172.2,231.5L167.3,236.4zM180.5,220.2L182.2,221.8L193.9,210.1L192.3,208.4L180.5,220.2zM180.3,214.9L181.9,216.4L188.5,209.8L186.9,208.3L180.3,214.9zM190.2,215.3C192.6,215.3,195.5,215.6,197.2,216.1L197.8,213.6C196.1,213.2,193.3,213.0,191.0,213.1L190.2,215.3zM179.2,207.3C179.7,210.5,178.8,214.8,177.2,218.5C177.9,218.5,179.2,218.6,179.9,218.8C181.4,214.7,182.1,210.4,181.5,206.5L179.2,207.3zM180.3,207.6L180.1,209.6C182.8,209.8,187.3,209.1,190.7,207.6C190.6,206.9,190.4,205.7,190.4,205.0C187.2,206.7,182.8,207.7,180.3,207.6zM187.5,225.2C187.2,224.9,187.9,223.2,187.9,223.2L187.8,223.1C188.2,220.8,188.2,218.1,187.9,215.6L185.3,216.2C185.8,218.6,185.8,221.4,185.7,222.2C185.6,223.1,185.5,223.6,185.3,224.0C185.9,224.3,187.1,224.9,187.5,225.2zM187.5,225.2C188.0,224.2,189.0,223.1,196.0,214.9C195.6,214.6,194.7,214.1,194.2,213.7L186.7,222.2L186.2,223.9L187.5,225.2zM192.7,198.0L198.3,192.4L199.4,193.5L193.8,199.0L192.7,198.0zM189.5,198.3L193.5,202.3L202.7,193.0L198.7,189.1L189.5,198.3zM200.1,201.9L201.4,203.1C202.3,204.0,203.2,205.8,199.2,211.5C200.0,211.5,201.2,211.6,201.7,211.7C205.7,205.5,204.7,202.8,203.2,201.3L202.0,200.0L200.1,201.9zM205.4,204.1C207.5,203.0,210.7,201.6,212.4,201.1L211.8,198.8C210.0,199.4,206.9,200.9,205.0,202.0L205.4,204.1zM193.8,203.8L199.0,209.0L200.7,207.2L197.1,203.6L204.0,196.7L207.4,200.2L209.3,198.3L204.3,193.3L193.8,203.8zM204.8,188.8L206.5,190.5L210.4,186.6L208.7,184.9L204.8,188.8zM206.8,179.9L217.9,191.0C218.1,191.2,218.1,191.4,217.9,191.7C217.6,191.9,216.9,192.7,216.0,193.4C216.8,193.7,218.0,194.2,218.6,194.7C219.7,193.5,220.5,192.6,220.8,191.7C221.0,190.9,220.7,190.2,219.7,189.2L208.6,178.1L206.8,179.9zM208.1,185.5L208.5,185.9C211.1,189.5,212.2,193.3,211.6,196.5C212.2,196.4,213.6,196.4,214.3,196.5C214.8,193.0,213.4,188.6,210.2,184.1L208.7,184.8L208.4,185.2L208.1,185.5zM211.6,181.3L210.6,183.0C215.5,185.6,220.5,186.9,225.2,185.4C224.9,184.7,224.8,183.4,224.8,182.6C220.6,184.2,215.8,183.4,211.6,181.3zM214.3,177.3C214.7,179.2,214.7,182.0,214.6,183.8L216.7,183.6C217.0,181.7,217.0,179.1,217.0,176.8L214.3,177.3zM221.6,174.6L223.3,176.3L227.6,171.9L226.0,170.3L221.6,174.6zM227.0,161.5L235.3,169.8C235.5,170.0,235.5,170.2,235.3,170.4C235.1,170.6,234.5,171.3,233.8,171.9C234.5,172.1,235.6,172.6,236.2,173.1C237.2,172.1,237.9,171.4,238.1,170.5C238.3,169.7,237.9,169.0,237.1,168.2L228.8,159.8L227.0,161.5zM223.0,165.6L235.3,177.9L237.0,176.2L226.4,165.6L229.7,162.3L228.0,160.6L223.0,165.6zM220.5,166.9C219.9,168.4,218.8,170.5,217.7,172.3C218.2,172.5,219.1,172.9,219.6,173.2C220.8,171.3,222.2,169.0,223.1,166.9L220.5,166.9zM217.7,172.3L224.9,179.6C225.5,180.1,225.4,180.8,225.2,181.3C225.9,181.5,227.1,182.1,227.7,182.4L228.1,179.3L219.4,170.6L217.7,172.3zM227.7,182.4C227.9,181.7,228.3,180.8,231.6,175.7C231.1,175.4,230.4,174.7,229.9,174.2L226.3,179.7L226.0,181.0L227.7,182.4" stroke="none" fill="#999999"/></g><g opacity="0.4" transform="translate(800,0)"><path d="M168.8,221.7L170.4,223.3L175.1,218.7L173.4,217.0L168.8,221.7zM175.3,228.2L177.0,229.9L181.9,225.0L180.2,223.3L175.3,228.2zM171.9,225.1L173.5,226.7L178.0,222.2L176.4,220.6L171.9,225.1zM161.0,229.5L162.6,231.1L167.0,226.8L165.3,225.1L161.0,229.5zM164.4,232.6L166.0,234.2L170.1,230.1L168.5,228.5L164.4,232.6zM166.1,220.7L179.3,233.9L181.1,232.1L167.9,218.9L166.1,220.7zM162.7,224.0L176.0,237.2L177.7,235.5L164.5,222.2L162.7,224.0zM167.3,236.4L168.9,238.1L173.9,233.1L172.2,231.5L167.3,236.4zM180.5,220.2L182.2,221.8L193.9,210.1L192.3,208.4L180.5,220.2zM180.3,214.9L181.9,216.4L188.5,209.8L186.9,208.3L180.3,214.9zM190.2,215.3C192.6,215.3,195.5,215.6,197.2,216.1L197.8,213.6C196.1,213.2,193.3,213.0,191.0,213.1L190.2,215.3zM179.2,207.3C179.7,210.5,178.8,214.8,177.2,218.5C177.9,218.5,179.2,218.6,179.9,218.8C181.4,214.7,182.1,210.4,181.5,206.5L179.2,207.3zM180.3,207.6L180.1,209.6C182.8,209.8,187.3,209.1,190.7,207.6C190.6,206.9,190.4,205.7,190.4,205.0C187.2,206.7,182.8,207.7,180.3,207.6zM187.5,225.2C187.2,224.9,187.9,223.2,187.9,223.2L187.8,223.1C188.2,220.8,188.2,218.1,187.9,215.6L185.3,216.2C185.8,218.6,185.8,221.4,185.7,222.2C185.6,223.1,185.5,223.6,185.3,224.0C185.9,224.3,187.1,224.9,187.5,225.2zM187.5,225.2C188.0,224.2,189.0,223.1,196.0,214.9C195.6,214.6,194.7,214.1,194.2,213.7L186.7,222.2L186.2,223.9L187.5,225.2zM192.7,198.0L198.3,192.4L199.4,193.5L193.8,199.0L192.7,198.0zM189.5,198.3L193.5,202.3L202.7,193.0L198.7,189.1L189.5,198.3zM200.1,201.9L201.4,203.1C202.3,204.0,203.2,205.8,199.2,211.5C200.0,211.5,201.2,211.6,201.7,211.7C205.7,205.5,204.7,202.8,203.2,201.3L202.0,200.0L200.1,201.9zM205.4,204.1C207.5,203.0,210.7,201.6,212.4,201.1L211.8,198.8C210.0,199.4,206.9,200.9,205.0,202.0L205.4,204.1zM193.8,203.8L199.0,209.0L200.7,207.2L197.1,203.6L204.0,196.7L207.4,200.2L209.3,198.3L204.3,193.3L193.8,203.8zM204.8,188.8L206.5,190.5L210.4,186.6L208.7,184.9L204.8,188.8zM206.8,179.9L217.9,191.0C218.1,191.2,218.1,191.4,217.9,191.7C217.6,191.9,216.9,192.7,216.0,193.4C216.8,193.7,218.0,194.2,218.6,194.7C219.7,193.5,220.5,192.6,220.8,191.7C221.0,190.9,220.7,190.2,219.7,189.2L208.6,178.1L206.8,179.9zM208.1,185.5L208.5,185.9C211.1,189.5,212.2,193.3,211.6,196.5C212.2,196.4,213.6,196.4,214.3,196.5C214.8,193.0,213.4,188.6,210.2,184.1L208.7,184.8L208.4,185.2L208.1,185.5zM211.6,181.3L210.6,183.0C215.5,185.6,220.5,186.9,225.2,185.4C224.9,184.7,224.8,183.4,224.8,182.6C220.6,184.2,215.8,183.4,211.6,181.3zM214.3,177.3C214.7,179.2,214.7,182.0,214.6,183.8L216.7,183.6C217.0,181.7,217.0,179.1,217.0,176.8L214.3,177.3zM221.6,174.6L223.3,176.3L227.6,171.9L226.0,170.3L221.6,174.6zM227.0,161.5L235.3,169.8C235.5,170.0,235.5,170.2,235.3,170.4C235.1,170.6,234.5,171.3,233.8,171.9C234.5,172.1,235.6,172.6,236.2,173.1C237.2,172.1,237.9,171.4,238.1,170.5C238.3,169.7,237.9,169.0,237.1,168.2L228.8,159.8L227.0,161.5zM223.0,165.6L235.3,177.9L237.0,176.2L226.4,165.6L229.7,162.3L228.0,160.6L223.0,165.6zM220.5,166.9C219.9,168.4,218.8,170.5,217.7,172.3C218.2,172.5,219.1,172.9,219.6,173.2C220.8,171.3,222.2,169.0,223.1,166.9L220.5,166.9zM217.7,172.3L224.9,179.6C225.5,180.1,225.4,180.8,225.2,181.3C225.9,181.5,227.1,182.1,227.7,182.4L228.1,179.3L219.4,170.6L217.7,172.3zM227.7,182.4C227.9,181.7,228.3,180.8,231.6,175.7C231.1,175.4,230.4,174.7,229.9,174.2L226.3,179.7L226.0,181.0L227.7,182.4" stroke="none" fill="#999999"/></g><g opacity="0.4" transform="translate(800,400)"><path d="M168.8,221.7L170.4,223.3L175.1,218.7L173.4,217.0L168.8,221.7zM175.3,228.2L177.0,229.9L181.9,225.0L180.2,223.3L175.3,228.2zM171.9,225.1L173.5,226.7L178.0,222.2L176.4,220.6L171.9,225.1zM161.0,229.5L162.6,231.1L167.0,226.8L165.3,225.1L161.0,229.5zM164.4,232.6L166.0,234.2L170.1,230.1L168.5,228.5L164.4,232.6zM166.1,220.7L179.3,233.9L181.1,232.1L167.9,218.9L166.1,220.7zM162.7,224.0L176.0,237.2L177.7,235.5L164.5,222.2L162.7,224.0zM167.3,236.4L168.9,238.1L173.9,233.1L172.2,231.5L167.3,236.4zM180.5,220.2L182.2,221.8L193.9,210.1L192.3,208.4L180.5,220.2zM180.3,214.9L181.9,216.4L188.5,209.8L186.9,208.3L180.3,214.9zM190.2,215.3C192.6,215.3,195.5,215.6,197.2,216.1L197.8,213.6C196.1,213.2,193.3,213.0,191.0,213.1L190.2,215.3zM179.2,207.3C179.7,210.5,178.8,214.8,177.2,218.5C177.9,218.5,179.2,218.6,179.9,218.8C181.4,214.7,182.1,210.4,181.5,206.5L179.2,207.3zM180.3,207.6L180.1,209.6C182.8,209.8,187.3,209.1,190.7,207.6C190.6,206.9,190.4,205.7,190.4,205.0C187.2,206.7,182.8,207.7,180.3,207.6zM187.5,225.2C187.2,224.9,187.9,223.2,187.9,223.2L187.8,223.1C188.2,220.8,188.2,218.1,187.9,215.6L185.3,216.2C185.8,218.6,185.8,221.4,185.7,222.2C185.6,223.1,185.5,223.6,185.3,224.0C185.9,224.3,187.1,224.9,187.5,225.2zM187.5,225.2C188.0,224.2,189.0,223.1,196.0,214.9C195.6,214.6,194.7,214.1,194.2,213.7L186.7,222.2L186.2,223.9L187.5,225.2zM192.7,198.0L198.3,192.4L199.4,193.5L193.8,199.0L192.7,198.0zM189.5,198.3L193.5,202.3L202.7,193.0L198.7,189.1L189.5,198.3zM200.1,201.9L201.4,203.1C202.3,204.0,203.2,205.8,199.2,211.5C200.0,211.5,201.2,211.6,201.7,211.7C205.7,205.5,204.7,202.8,203.2,201.3L202.0,200.0L200.1,201.9zM205.4,204.1C207.5,203.0,210.7,201.6,212.4,201.1L211.8,198.8C210.0,199.4,206.9,200.9,205.0,202.0L205.4,204.1zM193.8,203.8L199.0,209.0L200.7,207.2L197.1,203.6L204.0,196.7L207.4,200.2L209.3,198.3L204.3,193.3L193.8,203.8zM204.8,188.8L206.5,190.5L210.4,186.6L208.7,184.9L204.8,188.8zM206.8,179.9L217.9,191.0C218.1,191.2,218.1,191.4,217.9,191.7C217.6,191.9,216.9,192.7,216.0,193.4C216.8,193.7,218.0,194.2,218.6,194.7C219.7,193.5,220.5,192.6,220.8,191.7C221.0,190.9,220.7,190.2,219.7,189.2L208.6,178.1L206.8,179.9zM208.1,185.5L208.5,185.9C211.1,189.5,212.2,193.3,211.6,196.5C212.2,196.4,213.6,196.4,214.3,196.5C214.8,193.0,213.4,188.6,210.2,184.1L208.7,184.8L208.4,185.2L208.1,185.5zM211.6,181.3L210.6,183.0C215.5,185.6,220.5,186.9,225.2,185.4C224.9,184.7,224.8,183.4,224.8,182.6C220.6,184.2,215.8,183.4,211.6,181.3zM214.3,177.3C214.7,179.2,214.7,182.0,214.6,183.8L216.7,183.6C217.0,181.7,217.0,179.1,217.0,176.8L214.3,177.3zM221.6,174.6L223.3,176.3L227.6,171.9L226.0,170.3L221.6,174.6zM227.0,161.5L235.3,169.8C235.5,170.0,235.5,170.2,235.3,170.4C235.1,170.6,234.5,171.3,233.8,171.9C234.5,172.1,235.6,172.6,236.2,173.1C237.2,172.1,237.9,171.4,238.1,170.5C238.3,169.7,237.9,169.0,237.1,168.2L228.8,159.8L227.0,161.5zM223.0,165.6L235.3,177.9L237.0,176.2L226.4,165.6L229.7,162.3L228.0,160.6L223.0,165.6zM220.5,166.9C219.9,168.4,218.8,170.5,217.7,172.3C218.2,172.5,219.1,172.9,219.6,173.2C220.8,171.3,222.2,169.0,223.1,166.9L220.5,166.9zM217.7,172.3L224.9,179.6C225.5,180.1,225.4,180.8,225.2,181.3C225.9,181.5,227.1,182.1,227.7,182.4L228.1,179.3L219.4,170.6L217.7,172.3zM227.7,182.4C227.9,181.7,228.3,180.8,231.6,175.7C231.1,175.4,230.4,174.7,229.9,174.2L226.3,179.7L226.0,181.0L227.7,182.4" stroke="none" fill="#999999"/></g><g opacity="0.4" transform="translate(800,800)"><path d="M168.8,221.7L170.4,223.3L175.1,218.7L173.4,217.0L168.8,221.7zM175.3,228.2L177.0,229.9L181.9,225.0L180.2,223.3L175.3,228.2zM171.9,225.1L173.5,226.7L178.0,222.2L176.4,220.6L171.9,225.1zM161.0,229.5L162.6,231.1L167.0,226.8L165.3,225.1L161.0,229.5zM164.4,232.6L166.0,234.2L170.1,230.1L168.5,228.5L164.4,232.6zM166.1,220.7L179.3,233.9L181.1,232.1L167.9,218.9L166.1,220.7zM162.7,224.0L176.0,237.2L177.7,235.5L164.5,222.2L162.7,224.0zM167.3,236.4L168.9,238.1L173.9,233.1L172.2,231.5L167.3,236.4zM180.5,220.2L182.2,221.8L193.9,210.1L192.3,208.4L180.5,220.2zM180.3,214.9L181.9,216.4L188.5,209.8L186.9,208.3L180.3,214.9zM190.2,215.3C192.6,215.3,195.5,215.6,197.2,216.1L197.8,213.6C196.1,213.2,193.3,213.0,191.0,213.1L190.2,215.3zM179.2,207.3C179.7,210.5,178.8,214.8,177.2,218.5C177.9,218.5,179.2,218.6,179.9,218.8C181.4,214.7,182.1,210.4,181.5,206.5L179.2,207.3zM180.3,207.6L180.1,209.6C182.8,209.8,187.3,209.1,190.7,207.6C190.6,206.9,190.4,205.7,190.4,205.0C187.2,206.7,182.8,207.7,180.3,207.6zM187.5,225.2C187.2,224.9,187.9,223.2,187.9,223.2L187.8,223.1C188.2,220.8,188.2,218.1,187.9,215.6L185.3,216.2C185.8,218.6,185.8,221.4,185.7,222.2C185.6,223.1,185.5,223.6,185.3,224.0C185.9,224.3,187.1,224.9,187.5,225.2zM187.5,225.2C188.0,224.2,189.0,223.1,196.0,214.9C195.6,214.6,194.7,214.1,194.2,213.7L186.7,222.2L186.2,223.9L187.5,225.2zM192.7,198.0L198.3,192.4L199.4,193.5L193.8,199.0L192.7,198.0zM189.5,198.3L193.5,202.3L202.7,193.0L198.7,189.1L189.5,198.3zM200.1,201.9L201.4,203.1C202.3,204.0,203.2,205.8,199.2,211.5C200.0,211.5,201.2,211.6,201.7,211.7C205.7,205.5,204.7,202.8,203.2,201.3L202.0,200.0L200.1,201.9zM205.4,204.1C207.5,203.0,210.7,201.6,212.4,201.1L211.8,198.8C210.0,199.4,206.9,200.9,205.0,202.0L205.4,204.1zM193.8,203.8L199.0,209.0L200.7,207.2L197.1,203.6L204.0,196.7L207.4,200.2L209.3,198.3L204.3,193.3L193.8,203.8zM204.8,188.8L206.5,190.5L210.4,186.6L208.7,184.9L204.8,188.8zM206.8,179.9L217.9,191.0C218.1,191.2,218.1,191.4,217.9,191.7C217.6,191.9,216.9,192.7,216.0,193.4C216.8,193.7,218.0,194.2,218.6,194.7C219.7,193.5,220.5,192.6,220.8,191.7C221.0,190.9,220.7,190.2,219.7,189.2L208.6,178.1L206.8,179.9zM208.1,185.5L208.5,185.9C211.1,189.5,212.2,193.3,211.6,196.5C212.2,196.4,213.6,196.4,214.3,196.5C214.8,193.0,213.4,188.6,210.2,184.1L208.7,184.8L208.4,185.2L208.1,185.5zM211.6,181.3L210.6,183.0C215.5,185.6,220.5,186.9,225.2,185.4C224.9,184.7,224.8,183.4,224.8,182.6C220.6,184.2,215.8,183.4,211.6,181.3zM214.3,177.3C214.7,179.2,214.7,182.0,214.6,183.8L216.7,183.6C217.0,181.7,217.0,179.1,217.0,176.8L214.3,177.3zM221.6,174.6L223.3,176.3L227.6,171.9L226.0,170.3L221.6,174.6zM227.0,161.5L235.3,169.8C235.5,170.0,235.5,170.2,235.3,170.4C235.1,170.6,234.5,171.3,233.8,171.9C234.5,172.1,235.6,172.6,236.2,173.1C237.2,172.1,237.9,171.4,238.1,170.5C238.3,169.7,237.9,169.0,237.1,168.2L228.8,159.8L227.0,161.5zM223.0,165.6L235.3,177.9L237.0,176.2L226.4,165.6L229.7,162.3L228.0,160.6L223.0,165.6zM220.5,166.9C219.9,168.4,218.8,170.5,217.7,172.3C218.2,172.5,219.1,172.9,219.6,173.2C220.8,171.3,222.2,169.0,223.1,166.9L220.5,166.9zM217.7,172.3L224.9,179.6C225.5,180.1,225.4,180.8,225.2,181.3C225.9,181.5,227.1,182.1,227.7,182.4L228.1,179.3L219.4,170.6L217.7,172.3zM227.7,182.4C227.9,181.7,228.3,180.8,231.6,175.7C231.1,175.4,230.4,174.7,229.9,174.2L226.3,179.7L226.0,181.0L227.7,182.4" stroke="none" fill="#999999"/></g></svg>